<svg id="Layer_1" data-name="Layer 1" xmlns="http://www.w3.org/2000/svg" viewBox="0 0 210.55 109.9"><defs><style>.cls-1{fill:#fff;}</style></defs><title>logo-white</title><path class="cls-1" d="M832.69,542.58a37.45,37.45,0,0,1-10.21-1.37,15.65,15.65,0,0,1-6.45-3.59,12.75,12.75,0,0,1-3.37-5.82,29.89,29.89,0,0,1-1-7.93v-68.7l13.81-2.29v68.36a18.64,18.64,0,0,0,.4,4.22,6.74,6.74,0,0,0,1.43,2.91,6.37,6.37,0,0,0,2.79,1.83,22,22,0,0,0,4.51,1Z" transform="translate(-811.69 -452.88)"/><path class="cls-1" d="M894.54,481.76a435.2,435.2,0,0,1-21.41,61.62,62.06,62.06,0,0,1-4.69,8.79,26.45,26.45,0,0,1-5.36,6.05,19.44,19.44,0,0,1-6.63,3.48,32,32,0,0,1-14.8.4,21.7,21.7,0,0,1-4.74-1.49l2.51-11.07a22.39,22.39,0,0,0,8.14,1.6c3.6,0,6.4-.86,8.43-2.57a21.06,21.06,0,0,0,5.33-7.93q-6.54-12.55-12.55-27.39a304.06,304.06,0,0,1-10.72-31.49h14.73q1.14,4.78,2.8,10.38t3.61,11.36q1.95,5.76,4.12,11.46t4.36,10.62q3.63-10.16,6.82-21.63t5.79-22.19Z" transform="translate(-811.69 -452.88)"/><path class="cls-1" d="M905,483.7a91.6,91.6,0,0,1,10.39-2.17,88.83,88.83,0,0,1,14.15-1,32.55,32.55,0,0,1,12.21,2,19,19,0,0,1,7.82,5.59,21.27,21.27,0,0,1,4.1,8.67,48.44,48.44,0,0,1,1.2,11.13v33.55H941.1V510.06a46.11,46.11,0,0,0-.62-8.16,14.5,14.5,0,0,0-2.06-5.48,8.18,8.18,0,0,0-3.88-3.08,16.23,16.23,0,0,0-6-1,45.64,45.64,0,0,0-5.48.34c-1.9.23-3.31.42-4.22.57v48.16H905Z" transform="translate(-811.69 -452.88)"/><path class="cls-1" d="M1022.24,539.61a82,82,0,0,1-10.33,2.29,80.59,80.59,0,0,1-13.06,1,35,35,0,0,1-12.67-2.16,26.5,26.5,0,0,1-9.53-6.22,27.53,27.53,0,0,1-6-9.82,37.39,37.39,0,0,1-2.11-13,43.61,43.61,0,0,1,1.77-12.84,28.15,28.15,0,0,1,5.19-9.87,23.3,23.3,0,0,1,8.33-6.34,27.16,27.16,0,0,1,11.3-2.22,25.71,25.71,0,0,1,7.65,1,33.43,33.43,0,0,1,5.7,2.28V455.17l13.81-2.29Zm-39.6-28.18q0,9.12,4.34,14.32t12,5.19a47.76,47.76,0,0,0,5.65-.28,37.38,37.38,0,0,0,3.82-.63V495.79a21.75,21.75,0,0,0-4.85-2.34,19,19,0,0,0-6.44-1.08q-7.54,0-11,5.13T982.64,511.43Z" transform="translate(-811.69 -452.88)"/></svg>