<svg id="Layer_1" data-name="Layer 1" xmlns="http://www.w3.org/2000/svg" viewBox="0 0 210.55 109.9"><defs><style>.cls-1{fill:#039;}</style></defs><title>logo</title><path class="cls-1" d="M673.67,665a37.92,37.92,0,0,1-10.22-1.37A15.67,15.67,0,0,1,657,660a12.75,12.75,0,0,1-3.37-5.82,29.43,29.43,0,0,1-1-7.93v-68.7l13.81-2.28v68.36a18.7,18.7,0,0,0,.4,4.22,6.73,6.73,0,0,0,1.42,2.91,6.36,6.36,0,0,0,2.8,1.82,21.79,21.79,0,0,0,4.51,1Z" transform="translate(-652.67 -575.27)"/><path class="cls-1" d="M735.52,604.14a435.35,435.35,0,0,1-21.41,61.63,62.38,62.38,0,0,1-4.69,8.78,26,26,0,0,1-5.37,6.05,19.05,19.05,0,0,1-6.62,3.48,30,30,0,0,1-8.46,1.09,29.52,29.52,0,0,1-6.34-.69,21.24,21.24,0,0,1-4.74-1.48l2.51-11.07a22.57,22.57,0,0,0,8.14,1.6q5.38,0,8.43-2.57A21.14,21.14,0,0,0,702.3,663q-6.54-12.56-12.55-27.39A298.8,298.8,0,0,1,679,604.14h14.72q1.15,4.8,2.81,10.39t3.61,11.35q2,5.76,4.12,11.47T708.65,648q3.63-10.15,6.81-21.62t5.8-22.2Z" transform="translate(-652.67 -575.27)"/><path class="cls-1" d="M746,606.08a93.61,93.61,0,0,1,10.38-2.17,90.17,90.17,0,0,1,14.15-1,32.66,32.66,0,0,1,12.22,2,19.1,19.1,0,0,1,7.81,5.6,21.29,21.29,0,0,1,4.11,8.67,48.32,48.32,0,0,1,1.2,11.13v33.55H782.08V632.44a45.24,45.24,0,0,0-.63-8.16,14.44,14.44,0,0,0-2.05-5.47,8.25,8.25,0,0,0-3.88-3.09,16.52,16.52,0,0,0-6-1,45.71,45.71,0,0,0-5.48.35c-1.9.23-3.31.42-4.22.57v48.16H746Z" transform="translate(-652.67 -575.27)"/><path class="cls-1" d="M863.22,662a80.42,80.42,0,0,1-10.33,2.28,79.58,79.58,0,0,1-13.07,1,34.69,34.69,0,0,1-12.66-2.17,26.28,26.28,0,0,1-9.53-6.22,27.35,27.35,0,0,1-6-9.81,37.39,37.39,0,0,1-2.11-13,43.61,43.61,0,0,1,1.77-12.84,28.07,28.07,0,0,1,5.19-9.87,23.21,23.21,0,0,1,8.33-6.34,27.16,27.16,0,0,1,11.3-2.22,25.93,25.93,0,0,1,7.64,1,34.38,34.38,0,0,1,5.71,2.29V577.55l13.81-2.28Zm-39.6-28.19q0,9.13,4.34,14.32t12,5.2a47.65,47.65,0,0,0,5.65-.29,37.38,37.38,0,0,0,3.82-.63V618.18a21.11,21.11,0,0,0-4.85-2.34,19,19,0,0,0-6.45-1.09q-7.53,0-11,5.14C824.78,623.31,823.62,628,823.62,633.81Z" transform="translate(-652.67 -575.27)"/></svg>